<svg width="32" height="33" viewBox="0 0 32 33" fill="none" xmlns="http://www.w3.org/2000/svg">
<path d="M26 30.5273H24V27.5273C23.9984 26.2017 23.4711 24.9309 22.5338 23.9936C21.5964 23.0562 20.3256 22.5289 19 22.5273H13C11.6744 22.5289 10.4036 23.0562 9.46622 23.9936C8.52888 24.9309 8.00159 26.2017 8 27.5273V30.5273H6V27.5273C6.00265 25.6716 6.74099 23.8927 8.05317 22.5805C9.36536 21.2683 11.1443 20.53 13 20.5273H19C20.8557 20.53 22.6346 21.2683 23.9468 22.5805C25.259 23.8927 25.9974 25.6716 26 27.5273V30.5273ZM5 6.52734C4.73478 6.52734 4.48043 6.6327 4.29289 6.82024C4.10536 7.00777 4 7.26213 4 7.52734V16.5273H6V7.52734C6 7.26213 5.89464 7.00777 5.70711 6.82024C5.51957 6.6327 5.26522 6.52734 5 6.52734Z" fill="#FF4800"/>
<path d="M4 2.52734V4.52734H9V11.5273C9 13.3839 9.7375 15.1643 11.0503 16.4771C12.363 17.7898 14.1435 18.5273 16 18.5273C17.8565 18.5273 19.637 17.7898 20.9497 16.4771C22.2625 15.1643 23 13.3839 23 11.5273V4.52734H28V2.52734H4ZM11 4.52734H21V7.52734H11V4.52734ZM16 16.5273C14.6739 16.5273 13.4021 16.0006 12.4645 15.0629C11.5268 14.1252 11 12.8534 11 11.5273V9.52734H21V11.5273C21 12.8534 20.4732 14.1252 19.5355 15.0629C18.5979 16.0006 17.3261 16.5273 16 16.5273Z" fill="#FF4800"/>
</svg>
