<svg width="32" height="33" viewBox="0 0 32 33" fill="none" xmlns="http://www.w3.org/2000/svg">
<path d="M29 30.5273H19C18.7348 30.5273 18.4804 30.422 18.2929 30.2345C18.1054 30.0469 18 29.7926 18 29.5273V19.5273C18 19.2621 18.1054 19.0078 18.2929 18.8202C18.4804 18.6327 18.7348 18.5273 19 18.5273H29C29.2652 18.5273 29.5196 18.6327 29.7071 18.8202C29.8946 19.0078 30 19.2621 30 19.5273V29.5273C30 29.7926 29.8946 30.0469 29.7071 30.2345C29.5196 30.422 29.2652 30.5273 29 30.5273ZM20 28.5273H28V20.5273H20V28.5273ZM8 30.5273C4.692 30.5273 2 27.8353 2 24.5273C2 21.2193 4.692 18.5273 8 18.5273C11.308 18.5273 14 21.2193 14 24.5273C14 27.8353 11.308 30.5273 8 30.5273ZM8 20.5273C5.794 20.5273 4 22.3213 4 24.5273C4 26.7333 5.794 28.5273 8 28.5273C10.206 28.5273 12 26.7333 12 24.5273C12 22.3213 10.206 20.5273 8 20.5273ZM22 14.5273H10C9.823 14.5273 9.64919 14.4803 9.4963 14.3911C9.34342 14.3019 9.21695 14.1738 9.1298 14.0197C9.04265 13.8656 8.99796 13.6912 9.00028 13.5142C9.00259 13.3373 9.05185 13.1641 9.143 13.0123L15.145 3.00934C15.338 2.68734 15.669 2.52734 16 2.52734C16.331 2.52734 16.662 2.68734 16.855 3.00934L22.857 13.0123C22.9482 13.1641 22.9974 13.3373 22.9997 13.5142C23.002 13.6912 22.9573 13.8656 22.8702 14.0197C22.7831 14.1738 22.6566 14.3019 22.5037 14.3911C22.3508 14.4803 22.177 14.5273 22 14.5273ZM11.766 12.5273H20.234L16 5.47134L11.766 12.5273Z" fill="#FF4800"/>
</svg>
