<svg width="32" height="33" viewBox="0 0 32 33" fill="none" xmlns="http://www.w3.org/2000/svg">
<path d="M6 16.5273H12V18.5273H6V16.5273ZM6 12.5273H16V14.5273H6V12.5273ZM6 8.52734H16V10.5273H6V8.52734Z" fill="#FF4800"/>
<path d="M14 26.5273H4V6.52734H28V16.5273H30V6.52734C30 5.99691 29.7893 5.4882 29.4142 5.11313C29.0391 4.73806 28.5304 4.52734 28 4.52734H4C3.46957 4.52734 2.96086 4.73806 2.58579 5.11313C2.21071 5.4882 2 5.99691 2 6.52734V26.5273C2 27.0578 2.21071 27.5665 2.58579 27.9416C2.96086 28.3166 3.46957 28.5273 4 28.5273H14V26.5273Z" fill="#FF4800"/>
<path d="M22 26.1173L19.41 23.5273L18 24.9373L22 28.9373L30 20.9373L28.59 19.5273L22 26.1173Z" fill="#FF4800"/>
</svg>
