<svg width="80" height="80" viewBox="0 0 80 80" fill="none" xmlns="http://www.w3.org/2000/svg">
<rect width="80" height="80" rx="40" fill="#1E1E1E"/>
<path d="M46.8571 27V29.2857H52.0983L44.5714 36.8126L46.1874 38.4286L53.7143 30.9017V36.1429H56V27H46.8571ZM53.7143 40.7143V45.2857C53.7147 45.586 53.6559 45.8834 53.5412 46.161C53.4265 46.4385 53.2582 46.6906 53.0458 46.903C52.8335 47.1153 52.5813 47.2837 52.3038 47.3984C52.0263 47.5131 51.7289 47.5719 51.4286 47.5714H44.5714L40 55.5714L41.984 56.7143L45.9029 49.8571H51.4286C52.641 49.8571 53.8038 49.3755 54.6611 48.5182C55.5184 47.6609 56 46.4981 56 45.2857V40.7143H53.7143ZM26.2857 45.2857V31.5714C26.2853 31.2711 26.3441 30.9737 26.4588 30.6962C26.5735 30.4187 26.7418 30.1665 26.9542 29.9542C27.1665 29.7418 27.4187 29.5735 27.6962 29.4588C27.9737 29.3441 28.2711 29.2853 28.5714 29.2857H42.2857V27H28.5714C27.359 27 26.1962 27.4816 25.3389 28.3389C24.4816 29.1962 24 30.359 24 31.5714V45.2857C24 46.4981 24.4816 47.6609 25.3389 48.5182C26.1962 49.3755 27.359 49.8571 28.5714 49.8571H38.8571V47.5714H28.5714C28.2711 47.5719 27.9737 47.5131 27.6962 47.3984C27.4187 47.2837 27.1665 47.1153 26.9542 46.903C26.7418 46.6906 26.5735 46.4385 26.4588 46.161C26.3441 45.8834 26.2853 45.586 26.2857 45.2857Z" fill="#FF4800"/>
</svg>
