<svg width="80" height="84" viewBox="0 0 80 84" fill="none" xmlns="http://www.w3.org/2000/svg">
<path d="M15.2929 52.7071C15.6834 53.0976 16.3166 53.0976 16.7071 52.7071L23.0711 46.3431C23.4616 45.9526 23.4616 45.3195 23.0711 44.9289C22.6805 44.5384 22.0474 44.5384 21.6569 44.9289L16 50.5858L10.3431 44.9289C9.95262 44.5384 9.31946 44.5384 8.92893 44.9289C8.53841 45.3195 8.53841 45.9526 8.92893 46.3431L15.2929 52.7071ZM15 32L15 52H17V32H15Z" fill="#FF4800" fill-opacity="0.3"/>
<path d="M39.2929 52.7071C39.6834 53.0976 40.3166 53.0976 40.7071 52.7071L47.0711 46.3431C47.4616 45.9526 47.4616 45.3195 47.0711 44.9289C46.6805 44.5384 46.0474 44.5384 45.6569 44.9289L40 50.5858L34.3431 44.9289C33.9526 44.5384 33.3195 44.5384 32.9289 44.9289C32.5384 45.3195 32.5384 45.9526 32.9289 46.3431L39.2929 52.7071ZM39 32V52H41V32H39Z" fill="#FF4800" fill-opacity="0.6"/>
<path d="M63.2929 52.7071C63.6834 53.0976 64.3166 53.0976 64.7071 52.7071L71.0711 46.3431C71.4616 45.9526 71.4616 45.3195 71.0711 44.9289C70.6805 44.5384 70.0474 44.5384 69.6569 44.9289L64 50.5858L58.3431 44.9289C57.9526 44.5384 57.3195 44.5384 56.9289 44.9289C56.5384 45.3195 56.5384 45.9526 56.9289 46.3431L63.2929 52.7071ZM63 32V52H65V32H63Z" fill="#FF4800"/>
</svg>
