<svg width="83" height="83" viewBox="0 0 83 83" fill="none" xmlns="http://www.w3.org/2000/svg">
<path d="M50.6129 79.7855C71.7684 74.7986 84.8761 53.6077 79.8896 32.4543C74.9032 11.3009 53.711 -1.80462 32.5555 3.1823M50.6129 79.7855C29.4574 84.7724 8.26512 71.6669 3.27871 50.5135M50.6129 79.7855C61.3699 77.2498 66.0479 58.046 61.0615 36.8926C56.0751 15.7392 43.3125 0.646575 32.5555 3.1823M50.6129 79.7855C39.8558 82.3212 27.0932 67.2286 22.1068 46.0752C17.1204 24.9218 21.7984 5.71802 32.5555 3.1823M3.27871 50.5135C-1.70771 29.3601 11.3999 8.16922 32.5555 3.1823M3.27871 50.5135L80.5389 32.3012M10.4463 16.9597C10.4463 16.9597 38.6294 22.6507 58.4904 5.6344M72.7221 66.0081C72.7221 66.0081 44.539 60.3171 24.6779 77.3334" stroke="white" stroke-width="4"/>
</svg>
