<svg width="124" height="124" viewBox="0 0 124 124" fill="none" xmlns="http://www.w3.org/2000/svg">
<path d="M119.14 79.9864C109.256 111.574 75.637 129.168 44.0497 119.284C12.4624 109.4 -5.13167 75.7811 4.75217 44.1938C14.636 12.6065 48.255 -4.98757 79.8423 4.89627C111.43 14.7801 129.024 48.3991 119.14 79.9864Z" fill="#171717"/>
<path d="M64.6885 19.312L58.622 38.6997M84.0763 25.3785L78.0097 44.7662M110.415 77.2564C102.039 104.025 73.5485 118.936 46.7797 110.559C20.0108 102.183 5.10052 73.6926 13.4767 46.9238M119.14 79.9864C109.256 111.574 75.637 129.168 44.0497 119.284C12.4624 109.4 -5.13167 75.7811 4.75217 44.1938C14.636 12.6065 48.255 -4.98757 79.8423 4.89627C111.43 14.7801 129.024 48.3991 119.14 79.9864Z" stroke="#1FAD66" stroke-width="3.54083"/>
</svg>
