<svg width="25" height="25" viewBox="0 0 25 25" fill="none" xmlns="http://www.w3.org/2000/svg">
<path d="M23 18.7695L21.9395 17.709L20 19.6485V13.5195H18.5V19.6485L16.5605 17.709L15.5 18.7695L19.25 22.5195L23 18.7695Z" fill="white"/>
<path d="M14 21.0198H6.5V3.01979H12.5V7.51979C12.5012 7.91725 12.6596 8.29809 12.9407 8.57914C13.2217 8.86018 13.6025 9.0186 14 9.01979H18.5V11.2698H20V7.51979C20.0026 7.42122 19.9839 7.32325 19.9451 7.23262C19.9062 7.14199 19.8482 7.06085 19.775 6.99479L14.525 1.74479C14.459 1.67154 14.3778 1.6135 14.2872 1.57465C14.1966 1.53581 14.0986 1.51709 14 1.51979H6.5C6.10254 1.52097 5.7217 1.67939 5.44065 1.96044C5.1596 2.24149 5.00119 2.62233 5 3.01979V21.0198C5.00119 21.4172 5.1596 21.7981 5.44065 22.0791C5.7217 22.3602 6.10254 22.5186 6.5 22.5198H14V21.0198ZM14 3.31979L18.2 7.51979H14V3.31979Z" fill="white"/>
</svg>
