<svg width="112" height="32" viewBox="0 0 112 32" fill="none" xmlns="http://www.w3.org/2000/svg">
<rect width="112" height="32" rx="16" fill="white"/>
<path d="M8.448 10.408H15.552V11.56H9.632V16.328H14.56V17.496H9.632V22.264H15.552V23.448H8.448V10.408ZM16.448 22.264H17.456V20.296H18.448V19.304H19.424V18.488H18.448V17.496H17.456V15.512H16.448V14.36H17.632V15.352H18.608V17.32H19.6V18.312H20.416V17.32H21.408V15.352H22.4V14.36H23.552V15.512H22.56V17.496H21.584V18.488H20.592V19.304H21.584V20.296H22.56V22.264H23.552V23.448H22.4V22.44H21.408V20.456H20.416V19.48H19.6V20.456H18.608V22.44H17.632V23.448H16.448V22.264ZM24.448 14.36H25.632V15.352H26.448V14.36H29.584V15.352H30.56V16.328H31.552V20.456H30.56V21.448H29.584V22.44H26.448V21.448H25.632V24.44H24.448V14.36ZM29.408 21.288V20.296H30.4V16.504H29.408V15.512H26.608V16.504H25.632V20.296H26.608V21.288H29.408ZM35.408 11.384H36.576V23.448H35.408V11.384ZM41.456 21.448H40.448V16.328H41.456V15.352H42.448V14.36H45.584V15.352H46.56V16.328H47.552V21.448H46.56V22.44H45.584V23.448H42.448V22.44H41.456V21.448ZM42.608 21.288V22.264H45.408V21.288H46.4V16.504H45.408V15.512H42.608V16.504H41.632V21.288H42.608ZM49.44 14.36H50.592V15.352H51.408V14.36H54.544V15.512H51.584V16.504H50.592V23.448H49.44V14.36ZM57.456 21.448H56.448V16.328H57.456V15.352H58.448V14.36H61.584V15.352H62.56V16.328H63.552V19.48H57.632V21.288H58.608V22.264H61.408V21.288H62.4V20.296H63.552V21.448H62.56V22.44H61.584V23.448H58.448V22.44H57.456V21.448ZM62.4 18.312V16.504H61.408V15.512H58.608V16.504H57.632V18.312H62.4ZM72.448 14.36H73.632V15.352H74.448V14.36H75.6V15.352H77.408V14.36H78.56V15.352H79.552V23.448H78.4V15.512H77.584V16.504H76.592V23.448H75.424V15.512H74.608V16.504H73.632V23.448H72.448V14.36ZM81.456 21.448H80.448V16.328H81.456V15.352H82.448V14.36H85.584V15.352H86.56V16.328H87.552V21.448H86.56V22.44H85.584V23.448H82.448V22.44H81.456V21.448ZM82.608 21.288V22.264H85.408V21.288H86.4V16.504H85.408V15.512H82.608V16.504H81.632V21.288H82.608ZM89.44 14.36H90.592V15.352H91.408V14.36H94.544V15.512H91.584V16.504H90.592V23.448H89.44V14.36ZM97.456 21.448H96.448V16.328H97.456V15.352H98.448V14.36H101.584V15.352H102.56V16.328H103.552V19.48H97.632V21.288H98.608V22.264H101.408V21.288H102.4V20.296H103.552V21.448H102.56V22.44H101.584V23.448H98.448V22.44H97.456V21.448ZM102.4 18.312V16.504H101.408V15.512H98.608V16.504H97.632V18.312H102.4Z" fill="black"/>
</svg>
