<svg width="108" height="34" viewBox="0 0 108 34" fill="none" xmlns="http://www.w3.org/2000/svg">
<rect width="108" height="34" rx="4" fill="#FF4800"/>
<path d="M9.456 21.948H8.448V19.804H9.632V21.788H10.608V22.764H13.408V21.788H14.4V18.988H13.408V17.996H10.448V17.004H9.456V16.012H8.448V12.876H9.456V11.884H10.448V10.908H13.584V11.884H14.56V12.876H15.552V15.036H14.4V13.052H13.408V12.06H10.608V13.052H9.632V15.852H10.608V16.828H13.584V17.82H14.56V18.812H15.552V21.948H14.56V22.94H13.584V23.948H10.448V22.94H9.456V21.948ZM17.456 21.948H16.448V16.828H17.456V15.852H18.448V14.86H21.584V15.852H22.56V16.828H23.552V19.98H17.632V21.788H18.608V22.764H21.408V21.788H22.4V20.796H23.552V21.948H22.56V22.94H21.584V23.948H18.448V22.94H17.456V21.948ZM22.4 18.812V17.004H21.408V16.012H18.608V17.004H17.632V18.812H22.4ZM25.456 21.948H24.448V16.828H25.456V15.852H26.448V14.86H29.584V15.852H30.56V16.828H31.552V19.98H25.632V21.788H26.608V22.764H29.408V21.788H30.4V20.796H31.552V21.948H30.56V22.94H29.584V23.948H26.448V22.94H25.456V21.948ZM30.4 18.812V17.004H29.408V16.012H26.608V17.004H25.632V18.812H30.4ZM40.448 14.86H41.632V15.852H42.448V14.86H43.6V15.852H45.408V14.86H46.56V15.852H47.552V23.948H46.4V16.012H45.584V17.004H44.592V23.948H43.424V16.012H42.608V17.004H41.632V23.948H40.448V14.86ZM49.456 21.948H48.448V16.828H49.456V15.852H50.448V14.86H53.584V15.852H54.56V16.828H55.552V21.948H54.56V22.94H53.584V23.948H50.448V22.94H49.456V21.948ZM50.608 21.788V22.764H53.408V21.788H54.4V17.004H53.408V16.012H50.608V17.004H49.632V21.788H50.608ZM57.44 14.86H58.592V15.852H59.408V14.86H62.544V16.012H59.584V17.004H58.592V23.948H57.44V14.86ZM65.456 21.948H64.448V16.828H65.456V15.852H66.448V14.86H69.584V15.852H70.56V16.828H71.552V19.98H65.632V21.788H66.608V22.764H69.408V21.788H70.4V20.796H71.552V21.948H70.56V22.94H69.584V23.948H66.448V22.94H65.456V21.948ZM70.4 18.812V17.004H69.408V16.012H66.608V17.004H65.632V18.812H70.4Z" fill="white"/>
<path d="M87.625 11.375V12.5H94.7069L85.375 21.8319L86.1681 22.625L95.5 13.2931V20.375H96.625V11.375H87.625Z" fill="white"/>
</svg>
