<svg width="79" height="79" viewBox="0 0 79 79" fill="none" xmlns="http://www.w3.org/2000/svg">
<g clip-path="url(#clip0_1424_36)">
<path d="M41.2638 31.4653C42.3307 31.7512 43.4274 31.118 43.7133 30.0511C43.9991 28.9842 43.366 27.8875 42.299 27.6016C41.2321 27.3157 40.1354 27.9489 39.8495 29.0158C39.5637 30.0828 40.1968 31.1794 41.2638 31.4653Z" fill="white"/>
<path d="M46.4379 12.1452C40.8022 10.6422 34.8005 11.436 29.7492 14.3523C24.698 17.2686 21.0097 22.0694 19.4935 27.7015C18.2547 32.3039 18.5584 37.1855 20.3581 41.5989C20.3581 41.5989 20.7332 42.5172 20.7983 42.6527L31.944 66.237L53.399 51.3777C53.5114 51.2981 54.2968 50.6927 54.2968 50.6927L54.3003 50.6874C58.0633 47.766 60.7657 43.6924 61.9942 39.0896C63.4972 33.4539 62.7034 27.4522 59.7871 22.4009C56.8708 17.3497 52.07 13.6614 46.4379 12.1452ZM43.3321 23.7363C44.4783 24.0434 45.5077 24.6836 46.2902 25.5758C47.0726 26.468 47.5729 27.5722 47.7278 28.7487C47.8827 29.9252 47.6852 31.1213 47.1604 32.1856C46.6355 33.2499 45.8068 34.1347 44.7791 34.728C43.7514 35.3214 42.5709 35.5966 41.3867 35.519C40.2026 35.4414 39.068 35.0144 38.1266 34.292C37.1851 33.5696 36.479 32.5842 36.0976 31.4605C35.7161 30.3368 35.6764 29.1252 35.9836 27.9789C36.3968 26.4427 37.4027 25.1333 38.7804 24.3379C40.1581 23.5424 41.795 23.3261 43.3321 23.7363ZM45.3654 47.0572L41.5017 46.0219L42.537 42.1582L34.8096 40.0877L33.7743 43.9514L29.9106 42.9161L30.9459 39.0524C31.2205 38.0277 31.8909 37.154 32.8096 36.6236C33.7283 36.0932 34.8202 35.9494 35.8449 36.224L43.5723 38.2945C44.597 38.5691 45.4707 39.2395 46.0011 40.1582C46.5315 41.077 46.6753 42.1688 46.4007 43.1935L45.3654 47.0572Z" fill="white"/>
</g>
<defs>
<clipPath id="clip0_1424_36">
<rect width="64" height="64" fill="white" transform="translate(16.5625) rotate(15)"/>
</clipPath>
</defs>
</svg>
