<svg width="40" height="32" viewBox="0 0 40 32" fill="none" xmlns="http://www.w3.org/2000/svg">
<rect width="40" height="32" rx="8" fill="white"/>
<g clip-path="url(#clip0_1394_36)">
<path d="M11.2727 27.8822V15.5825L7.43837 12.0928L4 10.1562V25.7116C4 26.9126 4.97812 27.8822 6.18187 27.8822H11.2727Z" fill="#4285F4"/>
<path d="M28.7266 27.8821H33.8174C35.0248 27.8821 35.9993 26.9089 35.9993 25.7115V10.1562L32.1048 12.3743L28.7266 15.5824V27.8821Z" fill="#34A853"/>
<path d="M11.2718 15.5813L10.75 10.7754L11.2718 6.17578L19.999 12.6874L28.7263 6.17578L29.3099 10.5271L28.7263 15.5813L19.999 22.0929L11.2718 15.5813Z" fill="#EA4335"/>
<path d="M28.7266 6.17662V15.5821L35.9993 10.1559V7.26185C35.9993 4.5777 32.9193 3.04755 30.7631 4.65729L28.7266 6.17662Z" fill="#FBBC04"/>
<path d="M4 10.156L7.34488 12.6517L11.2727 15.5822V6.17668L9.23625 4.65734C7.07625 3.04748 4 4.57776 4 7.26178V10.156Z" fill="#C5221F"/>
</g>
<defs>
<clipPath id="clip0_1394_36">
<rect width="32" height="24" fill="white" transform="translate(4 4)"/>
</clipPath>
</defs>
</svg>
