<svg width="128" height="128" viewBox="0 0 128 128" fill="none" xmlns="http://www.w3.org/2000/svg">
<path d="M22.3124 55.9063C18.5784 57.6625 8.697 65.5684 6.79381 67.9107C4.81735 70.2531 4.23165 66.5932 6.28095 60.5178C7.89107 55.6132 11.991 48.9521 18.8715 43.2429C22.8968 39.949 31.7542 35.191 37.1708 32.4095C38.2689 31.8233 52.4695 25.8216 65.1329 22.8203C66.2311 22.5272 63.8154 24.6502 63.4491 25.8216C61.5459 31.3846 23.5558 55.2473 23.5558 55.2473L22.3124 55.9063ZM75.8199 123.029C76.4784 126.982 75.8931 127.275 71.7945 127.787C67.6951 128.3 64.6938 126.762 63.5961 125.738C62.4975 124.712 62.2786 122.444 63.3763 120.394C64.0357 119.077 64.6942 118.638 65.0605 117.027C65.426 115.49 65.7191 115.124 66.0117 114.539C66.3043 114.026 66.378 113.513 66.4509 109.927C66.5241 106.34 66.4509 99.6056 66.8172 96.7512C67.1835 93.8232 79.8465 98.0683 79.8465 98.0683C79.8465 98.0683 76.8452 105.535 76.0401 107.364C75.235 109.195 75.3083 112.708 75.3083 113.44C75.3083 114.172 75.0152 115.636 74.7954 115.709C74.5756 115.782 75.5281 117.685 75.0885 118.784C74.7954 119.808 75.747 122.444 75.8199 123.029ZM80.6511 11.1085C80.2115 8.32694 80.6511 2.8363 81.2368 1.95884C83.0667 -0.530484 92.7288 -0.823117 94.7785 2.10494C95.6568 3.42243 95.5836 6.49659 95.4375 8.47304C95.2914 10.4495 94.7785 14.6951 94.7052 16.0862C94.6324 17.1111 84.0183 18.7208 81.676 15.9397C81.017 15.2079 80.6511 11.1085 80.6511 11.1085ZM102.171 115.928C106.637 119.15 110.077 119.735 112.346 120.906C114.615 122.078 114.03 124.347 110.223 125.006C107.149 125.591 102.318 124.42 99.0973 124.42C95.8766 124.42 88.703 124.786 86.7998 123.469C84.604 121.931 85.5552 119.077 85.5552 119.077C86.1413 117.467 87.6045 113.879 87.1653 110.951C86.7261 108.024 86.1404 106.413 85.0427 103.705C83.9446 100.997 83.14 94.3356 84.1648 93.9693C85.1897 93.603 84.8966 93.9693 86.2141 94.2624C87.5316 94.5546 88.9957 94.9942 91.8505 94.9942C94.7052 94.9942 97.8527 94.5546 98.9508 94.3352C100.049 94.1158 100.927 93.8956 100.561 96.1651C100.195 98.4342 99.0973 102.68 99.0241 105.974C98.9508 109.268 98.9508 113.074 99.1706 113.733C99.39 114.392 101.001 115.124 102.171 115.929" fill="black"/>
<path d="M86.5071 18.4281C78.4556 25.3824 62.8638 27.2847 39.7333 36.2154C33.8043 38.4845 17.9935 45.2918 14.1871 52.3925C26.9966 44.9996 31.7546 55.1741 32.7794 65.6412C33.7306 75.4498 38.6351 80.5741 51.2252 80.2806C64.1817 79.9884 68.1342 87.5275 71.7208 96.3849C78.6746 62.4933 89.8011 55.9059 96.9742 50.1234C112.2 37.7523 93.4609 15.9393 86.5071 18.4281Z" fill="#88CE02"/>
<path d="M86.5071 18.4281C67.1826 25.1621 48.0778 26.8455 25.6058 40.6799C20.2626 43.9738 8.98998 51.44 6.79372 65.714C14.9918 56.6372 33.95 45.2185 57.1542 37.972C68.866 34.3117 77.4303 31.8966 87.8246 27.8699C87.0928 23.1852 87.0928 21.3553 86.5071 18.4272" fill="#88CE02"/>
<path d="M111.175 58.5409C111.175 58.5409 109.784 63.2989 107.003 64.8366C107.003 64.8366 104.953 65.5684 100.854 63.2993C99.6829 62.6408 98.8046 60.3717 98.8774 59.639C98.9507 57.8824 100.049 57.0773 100.049 57.0773C100.049 57.0773 101.22 55.1009 102.611 55.1741C104.002 55.2474 106.344 55.4668 107.076 54.8078C107.734 54.076 111.321 56.1253 111.175 58.5409ZM81.31 12.4993C81.31 12.4993 81.0173 16.2324 80.5049 18.5748C80.4316 19.0143 78.2358 19.2333 76.6253 19.8922C79.6994 28.676 98.2189 28.6027 100.635 24.2839C99.4636 23.4793 97.1212 22.2346 96.0235 21.7954C94.925 21.3558 94.9982 21.4291 94.925 19.3798C94.8517 17.3305 94.7052 13.5241 94.5586 12.4993C94.4121 11.4744 83.0666 11.474 81.31 12.4993Z" fill="black"/>
<path d="M82.0418 12.4991C82.0418 12.4991 82.0418 14.6217 81.822 16.671C81.7496 17.623 81.6763 18.2083 81.5298 18.9401C81.4565 19.3797 84.0187 21.1359 84.7505 25.0156C88.2642 32.8477 96.3894 28.9685 99.7562 25.2354C98.5852 24.4299 96.682 23.3322 94.4862 22.4538C93.3881 22.0142 93.9001 21.0631 93.8273 19.0138C93.754 16.9641 93.4609 13.9627 93.3148 12.8646C93.1687 11.7665 83.7989 11.4738 82.0418 12.4991Z" fill="#EFEFEF"/>
<path d="M81.31 12.4992C81.31 12.4992 81.2367 13.8167 81.0173 15.354C81.9685 16.3051 83.2132 17.6231 84.1652 18.4281C84.8237 19.0143 86.4339 18.941 87.8983 18.941C89.2158 18.941 90.3868 19.0871 90.8992 18.7945C92.071 18.2083 93.754 16.7447 94.7056 15.6466C94.6328 14.3291 94.5595 13.0849 94.4867 12.4992C94.4125 11.4739 83.0666 11.4739 81.31 12.4992Z" fill="black"/>
<path d="M87.9712 18.0622C87.0924 18.0622 86.0675 17.9889 85.2625 17.8424C84.8961 17.7691 84.5307 17.5497 84.2376 17.4032C83.7252 17.0369 83.2127 16.5981 82.6279 16.1585C81.4561 15.2802 81.3832 14.7678 81.3832 14.5488C81.8957 9.93696 81.2367 6.05774 81.2367 6.05774C81.2367 6.05774 80.7239 4.08085 83.5058 3.56842C86.2873 3.05599 87.9707 2.98315 87.9707 2.98315C87.9707 2.98315 89.7278 2.98315 92.4356 3.56842C95.2176 4.08128 94.7052 6.05774 94.7052 6.05774C94.7052 6.05774 94.0462 9.93696 94.5586 14.5488C94.5586 14.7678 94.4858 15.2802 93.3144 16.1585C92.2895 16.8908 91.4845 17.6958 90.6794 17.8424C89.8739 17.9889 88.8491 18.0622 87.9712 18.0622Z" fill="black"/>
<path d="M87.9712 1.08008C83.1399 1.08008 82.1883 2.39757 80.7975 3.8616C80.5049 4.2275 80.7243 6.42332 81.2371 11.1085H81.8957C81.8957 11.1085 81.4561 9.79054 81.5293 8.25325C81.6026 6.71639 81.8957 6.78965 81.6759 6.42332C81.3828 5.98373 80.7976 5.25193 82.1155 4.52013C83.4325 3.78833 85.4823 5.10583 87.9712 5.17909C90.4596 5.10583 92.5826 3.78833 93.9001 4.52013C95.2176 5.25193 94.6319 5.98416 94.3397 6.42332C94.0466 6.86292 94.4125 6.71639 94.4858 8.25325C94.5591 9.79011 94.1195 11.1085 94.1195 11.1085H94.7784C95.2176 6.42375 95.5102 4.37403 95.2909 4.0077C94.0462 2.39757 92.802 1.15291 87.9712 1.08008ZM111.175 58.7607C111.175 58.7607 109.784 63.2256 107.076 64.7629C106.49 64.4698 106.563 64.0311 106.051 63.3721C105.904 63.1528 105.392 63.0058 105.173 62.7864C104.953 62.5666 105.026 62.2007 104.66 61.9081C104.367 61.615 104.148 61.8348 103.855 61.615C103.563 61.3228 103.488 60.9565 103.27 60.7376C103.123 60.591 102.537 60.5178 102.391 60.3712C102.025 60.0049 98.8046 59.3464 98.9511 58.6141C99.2433 57.516 99.8295 56.7109 99.8295 56.7109C99.8295 56.7109 101.22 54.6617 102.611 54.7345C104.001 54.8078 105.319 55.1008 106.051 54.4419C106.857 53.7096 111.395 56.4183 111.175 58.7602" fill="black"/>
<path d="M101.659 26.4068C101.659 26.4068 106.271 25.3086 109.418 28.31C112.566 31.3845 112.346 35.1905 111.395 37.5329C112.2 38.4844 113.664 41.1194 112.566 44.2673C117.397 48.3659 115.274 54.6616 110.956 58.8339C110.956 58.8339 109.931 55.0275 105.832 54.8077C105.978 53.3441 102.025 52.1727 103.855 48.3663C101.074 47.7073 101.147 45.8042 100.708 43.4618C100.341 41.1194 101.659 26.4068 101.659 26.4068Z" fill="black"/>
<path d="M99.9756 28.4565C99.9756 28.4565 105.319 25.7483 108.467 28.8229C111.614 31.897 110.735 35.2638 109.784 37.6062C110.589 38.5573 112.492 41.2665 111.321 44.4867C111.101 45.2189 109.491 45.2189 108.32 47.1221C111.247 45.4379 113.078 45.8775 113.737 48C114.762 51.294 112.492 55.2465 110.516 57.4427C110.516 57.3695 110.443 57.2962 110.443 57.2229C110.15 58.3215 109.784 60.4436 107.588 62.786C106.49 63.9574 105.611 63.8113 104.367 63.5182C102.903 63.1519 102.391 62.4929 100.341 61.3956C99.1701 60.7367 99.8286 59.9312 99.8286 59.2727C99.8286 59.1261 99.9751 58.9063 100.195 58.6141C100.341 58.2478 100.781 57.6625 101.439 57.0036C101.439 57.0036 102.391 55.6861 103.782 55.7589C105.173 55.8317 106.636 55.54 107.003 55.1736C107.003 52.6119 104.075 52.5382 105.099 48.1466C105.173 47.9268 105.539 47.5604 106.71 47.4143C104.953 47.048 104.148 46.9747 102.903 45.8042C102.025 44.9991 101.366 43.9743 101.147 42.6568C100.707 40.3877 99.9756 28.4565 99.9756 28.4565Z" fill="#EFEFEF"/>
<path d="M84.5307 23.8449C84.0911 23.2588 81.8224 20.3312 77.5036 19.1602C76.2589 18.7939 75.4539 19.8188 74.2101 20.551C73.8437 20.3312 72.2332 19.5994 71.3549 20.1114C70.4765 20.6234 69.8913 21.1363 69.0125 21.5022C68.5729 21.2824 67.4024 21.2824 66.4508 21.6487C65.4992 21.9413 64.0352 22.5999 62.6444 24.503C61.7661 27.6509 78.1621 25.3081 78.1621 25.3081L84.5307 23.8449Z" fill="black"/>
<path d="M84.6772 23.845C82.3344 23.0395 82.7007 20.3313 77.5036 19.8921C76.4787 19.8189 75.8198 20.6239 75.088 21.1364C75.4543 21.5027 75.8198 22.0879 76.0396 22.6732C75.3806 21.9418 74.2096 20.9898 73.0378 20.77C71.9401 20.5511 71.2079 21.3562 70.0369 21.9418C70.2563 22.1608 70.4761 22.5271 70.7687 22.9667C69.7434 22.3077 69.0121 22.0884 67.6213 22.6004C66.6697 22.893 64.8398 23.6985 63.449 25.675C62.5707 28.8224 78.235 25.3086 78.235 25.3086L84.6772 23.845Z" fill="#88CE02"/>
<path d="M98.4387 25.0159C98.4387 25.0159 98.4387 24.2109 98.3654 23.4791C98.3654 23.3325 97.7797 22.9662 97.7797 22.8201L97.6332 22.6736C97.6332 22.6736 98.8046 22.015 99.6829 22.3809C100.634 22.674 101.147 23.9182 101.147 23.9182C102.83 23.333 102.976 23.9915 103.782 24.8698C105.539 24.5035 105.758 25.1625 106.857 26.773C106.857 26.773 105.539 26.5532 102.977 26.9924C100.488 27.3579 98.4387 24.9427 98.4387 25.0159Z" fill="black"/>
<path d="M98.1456 24.6501C98.1456 24.6501 98.5848 24.2838 98.4383 24.2105C99.2433 23.7709 100.341 23.2593 100.854 24.6501C102.537 24.064 102.757 24.8699 103.562 25.7482C105.611 24.7966 105.758 25.9672 105.905 26.48C105.246 26.48 104.294 26.5533 102.976 26.6994C100.488 27.0657 98.0724 24.5764 98.1456 24.6501Z" fill="#88CE02"/>
<path d="M73.2581 22.8203C73.2581 22.8203 77.4303 24.2839 80.9441 24.0641C84.4578 23.7719 90.46 23.4788 93.6803 25.382C93.6803 25.382 96.9743 24.2106 100.049 25.0157C103.123 25.8208 108.76 31.0912 107.076 36.6542C106.93 37.0206 105.978 37.6058 104.88 37.9722C104.88 37.9722 105.466 40.461 104.441 42.5103C103.416 44.4868 101.147 48.2932 101.074 53.5636C101 54.4419 100.854 56.2718 100.708 57.1497C94.9982 56.9308 86.2145 54.8074 77.5773 54.9543C77.6501 54.0028 77.7234 53.4171 77.7971 52.4655H78.016C77.5764 50.0498 77.4303 48.8052 76.9912 46.9757C74.2097 45.219 71.2812 43.1693 68.7931 39.2896C66.3775 35.41 73.2581 22.8203 73.2581 22.8203ZM101.513 62.3473C101.513 62.3473 106.051 78.5977 100.708 85.4054C100.708 85.4054 101.513 88.5528 99.6829 91.9201C99.3899 93.3837 99.0235 94.7016 98.8046 96.1652C97.853 102.241 96.2425 104.802 95.8033 114.538L91.4112 114.465C91.4112 114.465 90.8983 107.438 89.3615 103.705C88.4836 101.582 85.0427 98.7269 85.1896 95.8725C85.3362 93.6767 85.7749 91.8468 89.5084 88.9183C89.8011 84.6732 85.5555 80.647 86.2145 64.8362L101.513 62.3473Z" fill="black"/>
<path d="M100.195 61.6884C101.367 69.1546 104.075 80.2074 99.1705 85.6244C99.3899 86.6492 99.5364 88.1132 99.2438 89.7962C99.0972 90.6745 98.8042 91.6261 98.4387 92.651C97.7065 94.4077 97.4134 96.9694 97.194 98.5067C96.2424 104.582 96.2424 104.876 95.8033 114.611L91.4112 114.538C91.4112 114.538 90.8983 107.511 89.3615 103.778C88.4836 101.655 86.6532 99.825 86.5071 96.9702C86.3606 94.7744 87.8979 90.3828 91.5582 90.5289C91.3384 81.6719 87.2389 83.4285 86.1412 64.9823L100.195 61.6884ZM73.258 22.8203C73.258 22.8203 74.8686 23.3327 76.6253 23.4788C78.3819 23.6254 80.2855 23.4788 81.9685 23.4056C85.4823 23.1129 90.4596 22.747 93.7536 24.6502C93.7536 24.6502 95.5835 24.0641 97.5604 24.2106C98.4387 24.2839 99.317 25.0157 100.342 25.3088C103.563 26.1138 106.637 31.4571 105.246 36.2888C105.099 36.6551 104.075 36.2888 102.903 36.6551C103.123 37.6795 103.27 40.0219 102.098 42.5108C100.854 44.9997 99.2433 48.2203 99.536 54.3691C91.8504 54.0028 88.4099 53.4907 80.7971 53.1248C80.1382 50.4162 79.699 47.7075 79.6257 46.3171C80.651 45.8043 81.2358 45.366 82.0418 44.4872C79.8459 44.8536 78.9672 44.707 77.6493 43.9744C76.3318 43.2426 73.9894 40.9002 72.818 39.3633C72.6719 39.2168 71.8673 41.632 70.0374 41.7057C69.378 40.7541 72.1595 38.0454 71.6471 37.021C69.8176 33.2874 73.258 22.8203 73.258 22.8203Z" fill="#EFEFEF"/>
<path d="M100.78 55.6133C100.78 55.6133 100.927 58.2483 100.927 58.9068C100.927 59.6391 101.513 61.8345 101.586 62.8597C100.781 64.2505 97.2673 67.3979 90.8988 68.5693C84.6035 69.8868 76.2589 60.005 76.2589 60.005C76.4787 59.0534 77.2105 56.2718 77.723 54.8078C77.7962 54.6613 77.9428 54.2954 77.9428 54.1493C78.6017 53.1977 100.78 55.6133 100.78 55.6133Z" fill="black"/>
<path d="M99.1705 55.833C99.1705 57.6625 99.4631 58.9805 99.6834 60.1514C100.049 62.2744 100.634 63.6652 100.634 65.0559C100.634 69.3011 95.071 68.5693 90.3859 68.7158C84.0911 70.0337 78.7478 60.1519 78.7478 60.1519C79.1866 58.468 79.4796 56.5653 80.1381 54.9543C80.2114 54.0764 80.3579 52.9783 80.4312 52.4658C89.361 52.4658 95.6563 52.9787 99.3166 53.3437C99.4631 54.1492 99.3166 55.54 99.1705 55.8326" fill="#EFEFEF"/>
<path d="M92.1434 65.2753C92.1434 65.2753 88.2638 56.6377 76.6248 59.2003C73.8437 67.032 70.1102 76.0359 72.5263 85.7712C70.1102 89.0652 67.3287 90.8956 67.3287 96.9706C67.3287 103.046 67.6217 104.071 67.6217 104.071L76.1857 104.511C76.1857 104.511 78.9672 100.924 80.0649 97.0443C80.358 95.9457 80.651 93.9697 80.4312 91.7006C80.7239 91.2615 81.9681 90.237 82.115 88.2606C82.115 88.2606 86.2869 86.0647 88.703 80.7211C90.9725 75.889 90.3863 71.7167 92.143 65.2749" fill="black"/>
<path d="M92.1434 65.2751C91.9236 64.4701 88.9956 56.5647 78.1626 58.9066C71.794 75.8888 74.1364 82.9163 75.088 85.99C70.7687 91.4798 68.7927 92.6512 69.6715 103.777H75.381C78.016 99.6054 78.6017 98.0677 78.7478 92.5779C78.7478 92.3581 77.9432 93.0175 77.3571 93.7493C77.7967 91.4802 79.0409 91.0411 79.9925 89.6503C80.4316 89.0642 80.7975 88.1863 80.7975 87.0149C85.9214 83.5748 87.8246 79.256 88.9223 74.7907C89.8011 71.7165 90.8255 66.6659 92.143 65.2747" fill="#EFEFEF"/>
<path d="M74.0631 53.4902C74.0631 53.4902 76.0396 53.5635 77.7967 54.1492C79.4805 54.7345 79.4805 55.1004 80.139 55.8326C80.798 56.5653 82.4081 57.6625 82.1155 58.7606C81.9689 59.3463 81.603 59.4924 81.0906 60.0049C80.8708 60.2247 79.2603 61.9813 78.8948 62.2007C78.675 62.3472 78.3819 62.567 78.1626 62.7136L77.0649 63.4454C76.3326 63.8117 75.8202 64.0311 75.0151 63.9578C75.0151 63.9578 73.1852 63.8845 72.0138 62.6403C72.0138 62.6403 71.8673 62.0542 72.1603 61.762C72.1603 61.762 70.6231 60.444 70.1839 59.5657C69.7443 58.6878 69.7443 57.4436 70.0374 56.7846C70.1839 56.1252 73.0382 54.2953 74.0631 53.4902ZM75.8935 124.713L75.6737 126.543C75.6737 126.543 75.0151 127.348 70.1111 127.275C65.1333 127.201 63.8158 125.665 63.3766 124.859L63.084 122.956C63.084 122.956 64.0356 121.565 64.2554 121.565C65.8655 121.712 71.3557 123.907 75.1621 124.493C75.5271 124.493 75.6004 124.639 75.8935 124.713ZM86.5071 120.979C86.5071 121.784 86.4339 121.784 86.4339 122.59C87.3122 123.249 89.5084 123.615 93.6803 123.541C99.7558 123.395 105.392 125.372 112.273 124.2L112.346 122.882L111.687 122.809L87.3122 120.833L86.5071 120.979Z" fill="black"/>
<path d="M91.8504 123.541H93.6803C97.6336 123.395 101.367 124.273 105.392 124.493C107.515 124.42 110.15 123.907 109.931 122.37L89.1425 120.613C87.8979 122.004 88.8495 123.175 91.8504 123.541ZM67.9876 92.7245C68.6466 93.1641 73.1119 95.7991 80.3584 95.4327C80.2118 96.8235 80.2851 99.5322 77.0644 104.29C75.4539 106.632 74.0627 110.732 73.7705 115.929C73.8437 117.1 74.5023 118.125 73.6239 119.662C73.917 120.613 75.088 122.517 75.6737 123.688C76.2589 124.859 76.552 126.176 72.6719 126.25C68.7194 126.323 62.3509 125.883 63.2297 122.81C63.6692 121.199 64.9135 119.516 65.06 118.857C65.2065 118.198 65.2065 116.222 66.4503 114.904C67.5485 111.244 67.1826 107.731 66.9632 104.437C66.5969 100.996 66.5236 95.5064 67.9876 92.7249M74.7953 33.0679C79.9925 26.1136 75.6004 20.551 67.2563 22.234C63.8886 22.8929 60.5218 25.2357 60.302 29.4808C59.2039 29.6274 56.7154 29.7735 55.4708 34.3121C54.5196 37.8254 54.0072 38.4839 52.3234 40.2406C51.2252 41.4853 52.3966 44.047 53.2017 45.8778C55.91 52.1726 64.2545 52.7579 69.8908 57.5159C71.794 57.0034 73.7705 54.8809 74.3557 53.4905C69.5978 47.8534 70.6226 45.658 68.7194 42.7299C70.7692 41.9973 75.4539 39.1438 74.7953 33.0679Z" fill="black"/>
<path d="M73.7705 32.6287C74.0627 32.1891 74.5755 31.2379 74.7953 30.8716C74.8686 30.7983 75.6737 32.1891 75.7469 32.1163C77.723 28.8951 78.2354 24.2104 75.9663 23.7713C75.4534 23.698 74.5023 23.4786 73.6972 23.1851C72.2332 22.6731 70.9157 22.6731 68.5729 23.1123C65.3526 23.698 62.132 26.0404 62.132 29.4076C62.132 29.6274 64.4006 30.2859 65.0596 32.9946C63.9615 31.4569 62.0583 29.7735 59.7887 31.2375C57.3735 32.7744 58.6178 36.2881 55.3971 39.9475C54.299 41.1922 54.4455 42.6562 55.6169 45.5843C57.5197 50.1957 66.5232 52.6846 71.4277 57.0763C72.5987 56.5638 73.4037 55.3929 73.9894 54.5145C70.6955 51.074 69.378 47.8534 68.4264 45.511C67.2554 42.8027 65.9375 41.2659 63.3753 39.2153C64.6933 39.7282 65.7185 40.2402 66.3034 40.6793C66.9619 41.1189 67.9135 41.1922 68.7923 40.8991C71.9406 39.8019 73.6239 35.4098 73.77 32.6287" fill="#EFEFEF"/>
<path d="M105.612 33.7999C105.392 36.5814 103.343 35.1906 102.245 34.6782C100.049 33.7266 97.8526 33.0681 95.2909 33.0681C92.7287 33.0681 89.4348 33.2879 86.5804 34.0197C82.6279 35.1174 81.4561 35.0445 79.6994 34.1658C77.9432 33.2142 74.869 30.8718 74.869 30.8718C74.869 30.8718 74.7958 31.6041 75.5276 32.5557C76.4787 33.7266 78.6022 35.1906 81.4565 36.1418C82.8473 36.5814 83.9454 36.2883 85.1901 35.9957C91.7047 34.3856 98.5848 34.0925 104.368 37.6058C104.661 37.7524 105.686 37.3128 106.125 36.6542C106.71 35.7031 105.612 33.7999 105.612 33.7999Z" fill="black"/>
<path d="M72.3064 61.6882C72.8921 62.0546 73.6239 62.2744 74.429 62.9329C74.429 62.9329 73.7705 62.9329 73.4778 62.6403C73.1115 62.4205 72.3797 61.7619 72.3064 61.6882Z" fill="#001423"/>
<path d="M93.4609 3.64169C93.2411 2.98316 91.6306 1.81177 87.8979 1.81177C83.8717 1.81177 82.7003 3.056 82.6279 3.71496C82.6279 3.93476 82.3348 6.27711 82.2616 7.22828C82.2616 7.22828 82.2616 8.39967 82.3348 10.1563C82.4081 11.3273 82.7007 11.9863 82.8468 13.5236C82.9934 15.1332 83.433 16.1585 84.2376 17.476C84.6039 17.6954 84.8966 17.9156 85.2625 17.9889C86.7265 18.2811 89.2886 18.3544 90.6794 17.9889C91.4845 17.7691 92.5093 16.3783 92.7287 15.1337C93.0218 13.5968 93.3144 12.4987 93.3877 11.5471C93.5342 10.5959 93.6075 8.47294 93.6803 7.88724C93.9001 6.27711 93.5338 3.78823 93.4605 3.64212" fill="#EFEFEF"/>
<path d="M85.7749 94.1157C85.7749 94.1157 89.655 95.7991 99.2438 94.3351C99.2438 94.3351 96.5355 107.95 97.7802 114.757C97.7802 114.757 99.0244 116.514 108.247 119.881C108.247 119.881 112.346 120.906 112.2 122.956C112.2 122.956 112.347 123.395 107.369 123.248C102.392 123.102 97.7065 122.224 94.413 122.224C91.119 122.224 87.6052 122.37 87.02 121.419C86.361 120.54 87.1665 118.271 88.1177 116.953C89.1434 115.563 88.8499 114.538 88.7771 112.049C88.5564 105.534 83.5791 98.8004 85.7749 94.1157Z" fill="black"/>
<path d="M84.9698 95.3599C84.457 96.0921 85.0427 98.8732 85.7749 101.582C86.5067 104.29 88.1173 105.9 88.4831 110.365C88.8495 114.757 88.9227 115.343 87.6781 117.905C86.4334 120.466 86.0675 122.809 90.3859 122.882C94.7043 122.956 97.0475 122.809 101.439 123.468C105.831 124.127 107.369 124.346 109.784 123.981C112.2 123.614 112.712 122.809 111.687 122.077C110.662 121.345 106.417 120.54 104.587 119.076C102.83 117.758 97.8526 115.562 97.7797 114.977C97.5599 113 97.4867 105.827 97.853 103.485C98.2189 101.142 98.7309 97.7751 98.8774 96.8968C99.024 96.0184 99.7558 95.1397 98.5111 95.4327C97.2673 95.7249 92.5826 96.3843 89.0688 96.1645C85.5555 95.9452 85.1901 95.1401 84.9698 95.3599Z" fill="#88CE02"/>
<path opacity="0.3" d="M87.4587 117.979C88.7029 118.564 90.5333 119.003 91.9236 119.003C91.9236 119.003 91.4108 121.419 92.2167 122.883C93.0213 124.347 86.3606 123.469 86.3606 123.469L86.068 118.271L87.4587 117.979ZM106.857 124.273C108.028 123.907 108.833 122.59 107.881 121.346C106.857 120.101 105.978 119.882 107.295 119.808C108.613 119.735 113.444 122.663 113.444 122.663L110.955 124.932L106.857 124.273ZM84.75 98.2144C86.4339 98.8005 88.9956 98.9466 91.1918 98.8733C93.3881 98.8001 96.6816 98.507 98.8046 97.7752C100.927 97.0434 100.049 98.5803 100.049 98.5803L98.8774 99.6784C98.8774 99.6784 96.0963 100.777 91.5582 100.704C86.2145 100.63 84.6039 100.045 84.6039 100.045L84.75 98.2144ZM84.8966 101.875C86.5804 102.461 89.1417 102.607 91.3379 102.534C93.5338 102.46 96.4622 102.46 98.5848 101.655C99.4631 101.362 98.9511 102.607 98.9511 102.607L98.5848 103.265C98.5848 103.265 95.73 104.29 91.2647 104.217C85.9214 104.144 84.9698 103.704 84.9698 103.704L84.8966 101.875Z" fill="black"/>
<path d="M80.0653 50.5625C80.0653 51.0754 85.7749 53.9293 88.9223 54.515C92.0702 55.1007 98.6581 54.515 99.6825 54.2956L99.536 55.3205C99.536 55.3205 91.7038 56.4919 85.7016 54.8813C79.6994 53.2708 80.3584 52.9049 80.3584 52.9049L80.0653 50.5625Z" fill="black"/>
<path d="M67.8411 113.001C68.7194 113.44 71.8673 114.245 73.9166 113.806C74.2092 113.732 73.9166 108.755 74.7221 106.486C75.893 103.338 77.7962 100.776 78.6741 95.2134C75.6 94.9203 72.0866 94.1152 70.2563 93.5295C67.9144 100.703 68.7199 106.852 67.8411 113.001ZM72.746 117.612C73.2585 117.759 73.6239 118.344 73.7709 117.978C74.0631 117.319 73.258 116.075 73.1848 115.197V115.124C72.5262 114.538 68.0613 114.465 68.354 114.757C67.8415 115.709 67.0365 115.563 66.7438 117.466C66.5977 118.417 67.7691 117.613 68.8664 117.539C66.8904 118.856 64.6213 120.541 64.2549 122.004C63.8158 124.053 64.548 124.64 66.7438 125.738C68.6475 126.177 70.9161 126.25 72.6728 126.177C74.6492 125.811 75.0156 124.859 74.4299 123.541C73.5507 121.565 72.9654 119.003 72.746 117.612Z" fill="#EFEFEF"/>
<path d="M73.5511 22.5271C75.9663 23.9179 79.334 23.552 80.5778 23.4787C80.8708 23.4787 83.7989 22.9663 83.945 23.0391C84.238 23.1124 84.238 23.3322 84.238 23.3322C84.238 23.3322 83.1399 23.9174 80.651 24.064C78.3087 24.2101 75.5271 24.064 73.9903 23.3322C72.1599 22.5271 73.5511 22.5271 73.5511 22.5271ZM98.4387 23.9179C98.8774 24.2105 101.733 25.3086 102.977 26.6261C104.075 27.7975 103.49 27.7242 103.27 27.4316C102.977 27.0653 100.707 25.528 99.8295 25.1625C98.9511 24.7962 97.8526 24.1377 97.8526 23.9911C97.8526 23.8446 98.4387 23.9179 98.4387 23.9179Z" fill="black"/>
<path d="M73.1848 54.2953C75.3073 54.1487 77.5032 54.6616 78.8944 56.1252C79.6261 56.8574 80.7975 57.6621 80.651 58.3943C80.651 58.6141 80.2114 59.1998 79.8464 59.639C79.6266 59.9312 78.9681 60.5901 78.7478 60.8099C78.4556 61.0297 77.4303 61.8348 77.211 61.9813C76.9912 62.1278 76.6981 62.4942 76.4787 62.567C75.7474 62.9333 74.9419 62.6403 74.2101 62.2744C73.4783 61.9085 74.3566 61.8348 73.5511 61.2495C71.5751 59.8587 70.4765 58.9067 71.282 56.1985C71.3553 55.686 72.1599 55.1003 73.1848 54.2953Z" fill="#EFEFEF"/>
<path opacity="0.4" d="M54.5192 37.5334C47.9313 40.1683 31.1689 48.5133 26.4109 51.0755C30.3634 53.564 32.1933 59.5657 32.7795 65.6416C32.8523 66.2278 32.9256 66.7398 32.9988 67.325C33.0721 67.8376 33.1452 68.2038 33.2182 68.4236C33.2182 68.4969 33.2182 68.6434 33.2914 68.7158C37.6103 56.9312 53.0547 44.4872 53.6404 43.5356C53.9335 43.0964 53.2741 41.1932 54.2994 39.3637C55.6173 37.0209 58.1795 35.9956 54.5192 37.5334ZM70.1839 92.7983C73.5507 86.0643 73.6239 79.6225 73.5507 72.083C73.5507 68.9352 75.8198 64.4702 74.6488 65.7145C70.2572 70.6185 59.2039 79.8419 51.2252 80.3543C62.4246 79.988 66.8167 85.6247 70.1839 92.7983Z" fill="black"/>
<path d="M19.9691 57.2967C24.1414 54.2958 45.735 42.8038 50.9326 41.1932C56.1293 39.5094 54.5188 37.533 54.5188 37.533C54.5188 37.533 33.4375 46.6093 20.8474 54.4419" fill="black"/>
<path opacity="0.4" d="M81.4561 36.1425C79.7727 35.4835 78.4552 37.46 78.8944 39.3632C79.3335 41.2664 83.286 43.3889 83.0662 50.3432C82.9201 56.0527 81.6759 58.3947 81.6759 58.3947L78.8944 54.8818C78.8944 54.8818 78.4548 46.9759 77.5036 45.8045C76.552 44.6336 73.5507 42.5106 72.3793 41.4129C71.2083 40.3148 73.6968 38.8507 73.5507 36.8014C73.4041 34.825 74.7953 30.8721 74.7953 30.8721L81.4561 36.1425ZM91.6306 67.3249C91.4845 72.8143 92.7296 80.9395 93.2411 84.8195C93.754 88.6988 94.4125 88.9918 93.2411 90.7489C92.0702 92.4323 90.5329 95.2138 90.5329 95.2138L85.4818 94.7742C85.4818 94.7742 89.508 89.6504 89.7269 88.6988C89.9467 87.7476 87.6777 80.5012 87.6777 80.5012L91.6306 67.3249ZM81.8957 16.0861C82.9205 18.3548 84.1648 19.3796 86.1408 20.0386C87.3122 20.4782 91.9236 21.0635 93.7536 19.0138C94.5586 18.0622 94.0466 15.5 94.0466 15.5L89.8739 18.8672L84.2376 17.8424L83.5791 16.159L81.8957 16.0861Z" fill="black"/>
<path d="M82.3344 21.1367C84.2376 22.3809 88.9956 23.5523 90.3131 23.7717C91.6306 24.0643 93.7536 22.3809 94.778 21.9418C95.8766 21.4294 97.7797 21.1367 99.9756 23.1132C100.195 23.333 99.4627 24.2841 99.4627 24.2841C99.3894 24.2109 98.9507 24.2109 98.3646 23.9178C97.7793 23.6256 97.2669 23.4054 96.3886 23.4791C92.7283 23.9178 92.143 25.1625 88.9223 24.4302C85.7016 23.698 84.8966 23.1127 81.7491 23.2588" fill="#88CE02"/>
<path d="M82.3344 21.1367C84.2376 22.3809 88.9956 23.5523 90.3131 23.7717C91.6306 24.0643 93.7536 22.3809 94.778 21.9418C95.8766 21.4294 97.7797 21.1367 99.9756 23.1132C100.195 23.333 99.4627 24.2841 99.4627 24.2841C99.3894 24.2109 98.9507 24.2109 98.3646 23.9178C97.7793 23.6256 97.2669 23.4054 96.3886 23.4791C92.7283 23.9178 92.143 25.1625 88.9223 24.4302C85.7016 23.698 84.8966 23.1127 81.7491 23.2588" stroke="black" stroke-width="1.586" stroke-linejoin="round"/>
<path d="M81.6759 21.3562C84.0915 22.3811 88.7762 23.4792 90.0937 23.7718C91.4112 24.0645 93.5338 22.747 94.5586 22.0884C96.389 20.917 98.7309 21.8686 99.8295 23.1133C100.561 23.9179 100.854 24.4308 100.854 24.6502C100.854 24.9428 99.976 24.6502 99.976 24.6502C99.4631 24.4304 98.8774 24.3575 98.4387 24.064C97.853 23.7718 97.2673 23.3327 96.3894 23.4055C92.7291 23.8451 91.9973 25.0893 88.8499 24.3571C85.7025 23.6249 84.897 22.9663 81.5302 23.1857" fill="#88CE02"/>
<path d="M70.33 89.7238C70.1835 89.5773 70.4765 89.4307 70.33 89.4307C69.3788 89.4307 68.0609 88.6989 67.3287 87.6741C64.1813 83.1359 59.5694 80.135 51.2248 80.3544C38.708 80.6474 33.7302 75.5236 32.779 65.715C32.2662 60.3717 30.8026 55.1741 27.8012 52.2461L26.0441 53.3442C29.4114 56.2723 30.5095 61.0303 31.2417 67.5449C32.4127 77.3535 40.3181 81.8921 49.541 82.0382C59.1302 82.1847 62.5707 84.1612 66.1573 88.9924C67.3282 90.5293 68.6462 91.0417 69.6706 91.2615L70.33 89.7238Z" fill="black"/>
<path opacity="0.4" d="M104.294 42.6572C104.514 43.7549 105.099 45.8779 106.27 46.9023C106.783 47.4148 106.857 47.5609 106.417 47.5609C105.977 47.5609 102.757 47.4148 102.757 47.4148L101.879 45.8779L104.294 42.6572Z" fill="black"/>
</svg>
