<svg width="35" height="35" viewBox="0 0 35 35" fill="none" xmlns="http://www.w3.org/2000/svg">
<path d="M17.8343 33.0557C26.5966 33.0557 33.6998 25.8922 33.6998 17.0557C33.6998 8.21911 26.5966 1.05566 17.8343 1.05566M17.8343 33.0557C9.072 33.0557 1.96875 25.8922 1.96875 17.0557M17.8343 33.0557C22.2897 33.0557 25.9015 25.8922 25.9015 17.0557C25.9015 8.21911 22.2897 1.05566 17.8343 1.05566M17.8343 33.0557C13.3789 33.0557 9.76707 25.8922 9.76707 17.0557C9.76707 8.21911 13.3789 1.05566 17.8343 1.05566M1.96875 17.0557C1.96875 8.21911 9.072 1.05566 17.8343 1.05566M1.96875 17.0557H33.9688M7.88472 4.44549C7.88472 4.44549 18.4169 9.32685 27.7839 4.44549M27.7839 29.6658C27.7839 29.6658 17.2517 24.7845 7.88472 29.6658" stroke="white" stroke-width="2"/>
</svg>
