<svg width="128" height="128" viewBox="0 0 128 128" fill="none" xmlns="http://www.w3.org/2000/svg">
<path d="M17.2411 8.0774C17.0514 8.081 16.8649 8.12724 16.6955 8.21269C16.526 8.29813 16.378 8.42059 16.2623 8.57101C16.1466 8.72142 16.0662 8.89593 16.0271 9.08162C15.988 9.2673 15.9912 9.4594 16.0364 9.64369L43.3475 120.193C43.4008 120.409 43.5099 120.606 43.6637 120.766C43.8175 120.926 44.0106 121.043 44.2237 121.105C44.4369 121.166 44.6625 121.171 44.8779 121.118C45.0934 121.065 45.2911 120.956 45.4512 120.803L127.613 41.7712C127.773 41.6172 127.889 41.4239 127.951 41.2107C128.012 40.9975 128.016 40.7718 127.963 40.5564C127.91 40.341 127.801 40.1434 127.647 39.9835C127.493 39.8235 127.3 39.7068 127.087 39.6451L17.6117 8.12666C17.4914 8.09148 17.3664 8.07487 17.2411 8.0774ZM19.0145 11.1607L124.282 41.4678L45.2777 117.462L19.0145 11.1607Z" fill="white"/>
<path d="M72.0088 23.8389C71.8425 23.8354 71.677 23.8647 71.522 23.9252C71.3669 23.9857 71.2253 24.0763 71.1053 24.1916L30.0435 63.7184C29.8841 63.8725 29.7679 64.0659 29.7067 64.279C29.6455 64.4922 29.6414 64.7176 29.6948 64.9329C29.7482 65.1481 29.8573 65.3455 30.011 65.5053C30.1648 65.6651 30.3578 65.7817 30.5709 65.8434L85.2725 81.6094C85.4856 81.6704 85.7109 81.6745 85.926 81.6211C86.1411 81.5677 86.3384 81.4587 86.4981 81.3051C86.6579 81.1515 86.7745 80.9586 86.8362 80.7458C86.898 80.5329 86.9027 80.3076 86.85 80.0923L73.2102 24.7995C73.1433 24.5296 72.9894 24.2893 72.7723 24.1157C72.5551 23.942 72.2868 23.8448 72.0088 23.8389ZM71.28 27.5335L83.8731 78.5753L33.3754 64.0207L71.28 27.5335Z" fill="white"/>
<path d="M51.6067 43.4011C51.417 43.4047 51.2305 43.451 51.0611 43.5364C50.8916 43.6219 50.7436 43.7443 50.6279 43.8947C50.5122 44.0451 50.4318 44.2197 50.3927 44.4053C50.3536 44.591 50.3568 44.7831 50.402 44.9674L57.18 72.4319C57.233 72.6476 57.342 72.8455 57.4959 73.0057C57.6498 73.1659 57.8432 73.2827 58.0566 73.3443C58.2701 73.406 58.4959 73.4103 58.7116 73.3568C58.9272 73.3034 59.1249 73.194 59.2848 73.0398L79.6858 53.3766C79.8453 53.2224 79.9614 53.029 80.0225 52.8158C80.0837 52.6026 80.0877 52.377 80.0341 52.1618C79.9806 51.9465 79.8714 51.7491 79.7175 51.5894C79.5637 51.4297 79.3705 51.3132 79.1574 51.2516L51.9773 43.4504C51.857 43.4152 51.732 43.3986 51.6067 43.4011ZM53.379 46.4811L76.3551 53.0754L59.1079 69.6968L53.379 46.4811Z" fill="white"/>
<path d="M44.8757 15.9669C44.7093 15.9636 44.5438 15.9931 44.3887 16.0538C44.2337 16.1145 44.0922 16.2052 43.9722 16.3207L23.5712 35.9828C23.4118 36.137 23.2956 36.3304 23.2345 36.5436C23.1734 36.7569 23.1694 36.9824 23.2229 37.1976C23.2764 37.4129 23.3856 37.6103 23.5395 37.77C23.6934 37.9298 23.8866 38.0463 24.0997 38.1078L51.2753 45.9102C51.4884 45.9711 51.7137 45.975 51.9288 45.9214C52.1438 45.8679 52.341 45.7588 52.5006 45.605C52.6603 45.4513 52.7767 45.2583 52.8383 45.0454C52.8999 44.8326 52.9045 44.6072 52.8517 44.392L46.0771 16.9287C46.0106 16.6584 45.8569 16.4175 45.6397 16.2435C45.4225 16.0694 45.154 15.9729 44.8757 15.9669ZM44.148 19.6616L49.8736 42.8772L26.9031 36.2829L44.148 19.6616ZM99.2326 31.6232C99.0663 31.6199 98.901 31.6495 98.7462 31.7102C98.5913 31.7709 98.45 31.8616 98.3302 31.977L77.9269 51.638C77.7669 51.792 77.6502 51.9854 77.5887 52.1989C77.5272 52.4123 77.523 52.6382 77.5766 52.8538C77.6302 53.0693 77.7396 53.267 77.8939 53.4268C78.0482 53.5866 78.2418 53.7029 78.4554 53.764L105.632 61.5653C105.845 61.6262 106.071 61.6301 106.286 61.5765C106.501 61.523 106.698 61.4139 106.857 61.2602C107.017 61.1064 107.134 60.9134 107.195 60.7006C107.257 60.4877 107.261 60.2624 107.208 60.0471L100.435 32.5838C100.368 32.3135 100.214 32.0728 99.997 31.8989C99.7796 31.7251 99.5109 31.6289 99.2326 31.6232ZM98.5049 35.3178L104.23 58.5346L81.2599 51.9402L98.5049 35.3178ZM58.3578 70.8881C58.0477 70.9 57.7528 71.0255 57.5293 71.2407L37.1282 90.9039C36.9688 91.0581 36.8527 91.2515 36.7915 91.4647C36.7304 91.678 36.7264 91.9035 36.7799 92.1188C36.8334 92.334 36.9426 92.5314 37.0965 92.6912C37.2504 92.8509 37.4436 92.9674 37.6567 93.0289L64.8379 100.83C65.0508 100.891 65.2759 100.894 65.4906 100.841C65.7054 100.787 65.9023 100.678 66.0617 100.525C66.2212 100.371 66.3375 100.178 66.3992 99.9658C66.4609 99.7532 66.4657 99.5282 66.4132 99.3131L59.6341 71.8487C59.5643 71.5662 59.3992 71.3164 59.1667 71.1414C58.9342 70.9665 58.6485 70.877 58.3578 70.8881ZM57.7062 74.5827L63.4362 97.7995L40.4601 91.2051L57.7062 74.5827Z" fill="white"/>
</svg>
